<svg id="visual" viewBox="0 0 900 600" width="900" height="600" xmlns="http://www.w3.org/2000/svg" xmlns:xlink="http://www.w3.org/1999/xlink" version="1.1"><rect x="0" y="0" width="900" height="600" fill="#adadad"></rect><path d="M0 211L21.5 212.5C43 214 86 217 128.8 203C171.7 189 214.3 158 257.2 146.2C300 134.3 343 141.7 385.8 149.7C428.7 157.7 471.3 166.3 514.2 175.7C557 185 600 195 642.8 179.3C685.7 163.7 728.3 122.3 771.2 104.3C814 86.3 857 91.7 878.5 94.3L900 97L900 0L878.5 0C857 0 814 0 771.2 0C728.3 0 685.7 0 642.8 0C600 0 557 0 514.2 0C471.3 0 428.7 0 385.8 0C343 0 300 0 257.2 0C214.3 0 171.7 0 128.8 0C86 0 43 0 21.5 0L0 0Z" fill="#ffffff" stroke-linecap="round" stroke-linejoin="miter"></path></svg>